<svg id="Raggruppa_1" data-name="Raggruppa 1" xmlns="http://www.w3.org/2000/svg" width="55.437" height="59.6" viewBox="0 0 55.437 59.6">
  <path id="Tracciato_1" data-name="Tracciato 1" d="M610.049,1702.33l3.911,6.812-4.87-1.714Z" transform="translate(-558.523 -1690.836)" fill="#242d1b"/>
  <path id="Tracciato_2" data-name="Tracciato 2" d="M609.681,1717.062l-7.642,11.494,2.763-13.177Z" transform="translate(-554.244 -1698.756)" fill="#242d1b"/>
  <path id="Tracciato_3" data-name="Tracciato 3" d="M602.039,1748.9l7.642,11.494-4.878,1.683Z" transform="translate(-554.244 -1719.1)" fill="#242d1b"/>
  <path id="Tracciato_4" data-name="Tracciato 4" d="M613.96,1778.14l-3.911,6.812-.959-5.1Z" transform="translate(-558.523 -1736.846)" fill="#242d1b"/>
  <path id="Tracciato_5" data-name="Tracciato 5" d="M590.269,1702.33l-.994,5.086-12.775-4.2Z" transform="translate(-538.743 -1690.836)" fill="#242d1b"/>
  <path id="Tracciato_6" data-name="Tracciato 6" d="M589.271,1782.52l1,5.091-13.77-.888Z" transform="translate(-538.743 -1739.504)" fill="#242d1b"/>
  <path id="Tracciato_7" data-name="Tracciato 7" d="M599.472,1748.9l2.763,13.176-.036.012-4.391-10.307Z" transform="translate(-551.677 -1719.1)" fill="#242d1b"/>
  <path id="Tracciato_8" data-name="Tracciato 8" d="M602.236,1715.362l-2.763,13.176-1.663-2.881,4.391-10.307Z" transform="translate(-551.677 -1698.738)" fill="#242d1b"/>
  <path id="Tracciato_9" data-name="Tracciato 9" d="M589.275,1708.782l-.008.031-11.1-1.333-1.671-2.9Z" transform="translate(-538.743 -1692.202)" fill="#242d1b"/>
  <path id="Tracciato_10" data-name="Tracciato 10" d="M589.267,1782.45l0,.027-12.771,4.2,1.667-2.893Z" transform="translate(-538.743 -1739.462)" fill="#242d1b"/>
  <path id="Tracciato_11" data-name="Tracciato 11" d="M595.916,1741.57l1.663,2.881h-2.889Z" transform="translate(-549.783 -1714.651)" fill="#242d1b"/>
  <path id="Tracciato_12" data-name="Tracciato 12" d="M597.579,1748.9l-1.663,2.881-1.226-2.881Z" transform="translate(-549.783 -1719.1)" fill="#242d1b"/>
  <path id="Tracciato_13" data-name="Tracciato 13" d="M568.149,1745.92l-13.849,1.93-3.341-1.93,3.341-1.93Z" transform="translate(-523.243 -1716.12)" fill="#242d1b"/>
  <path id="Tracciato_14" data-name="Tracciato 14" d="M574.254,1704.58l1.671,2.9-3.125-.377Z" transform="translate(-536.498 -1692.202)" fill="#242d1b"/>
  <path id="Tracciato_15" data-name="Tracciato 15" d="M575.921,1785.85l-1.667,2.893-1.454-2.516Z" transform="translate(-536.498 -1741.525)" fill="#242d1b"/>
  <path id="Tracciato_16" data-name="Tracciato 16" d="M554.907,1673.09l6.128,12.378-10.016-8.994Z" transform="translate(-523.279 -1673.09)" fill="#242d1b"/>
  <path id="Tracciato_17" data-name="Tracciato 17" d="M571.347,1704.58l-1.454,2.524-1.883-2.524Z" transform="translate(-533.591 -1692.202)" fill="#242d1b"/>
  <path id="Tracciato_18" data-name="Tracciato 18" d="M569.9,1786.81l1.454,2.516h-3.333Z" transform="translate(-533.597 -1742.108)" fill="#242d1b"/>
  <path id="Tracciato_19" data-name="Tracciato 19" d="M561.035,1793.21l-6.128,12.382-3.888-3.385Z" transform="translate(-523.279 -1745.992)" fill="#242d1b"/>
  <path id="Tracciato_20" data-name="Tracciato 20" d="M561,1690.694h-3.337l-6.7-8.974.023-.02Z" transform="translate(-523.243 -1678.315)" fill="#242d1b"/>
  <path id="Tracciato_21" data-name="Tracciato 21" d="M561,1793.21l-10.016,9-.023-.02,6.706-8.978Z" transform="translate(-523.243 -1745.992)" fill="#242d1b"/>
  <path id="Tracciato_22" data-name="Tracciato 22" d="M559.544,1711l-5.244,12.968-3.341,1.93v-3.88Z" transform="translate(-523.243 -1696.098)" fill="#242d1b"/>
  <path id="Tracciato_23" data-name="Tracciato 23" d="M554.3,1750.83l5.244,12.972-8.585-11.026V1748.9Z" transform="translate(-523.243 -1719.1)" fill="#242d1b"/>
  <path id="Tracciato_24" data-name="Tracciato 24" d="M548.838,1673.09l-3.911,3.365-3.907-3.365Z" transform="translate(-517.21 -1673.09)" fill="#242d1b"/>
  <path id="Tracciato_25" data-name="Tracciato 25" d="M548.838,1819.515h-7.818l3.907-3.365Z" transform="translate(-517.21 -1759.915)" fill="#242d1b"/>
  <path id="Tracciato_26" data-name="Tracciato 26" d="M537.7,1748.9v3.876l-8.585,11.026,5.244-12.972Z" transform="translate(-509.988 -1719.1)" fill="#242d1b"/>
  <path id="Tracciato_27" data-name="Tracciato 27" d="M537.7,1722.018v3.88l-3.341-1.93L529.119,1711Z" transform="translate(-509.988 -1696.098)" fill="#242d1b"/>
  <path id="Tracciato_28" data-name="Tracciato 28" d="M535.459,1681.72l-6.7,8.974h-3.337l10.016-8.994Z" transform="translate(-507.742 -1678.315)" fill="#242d1b"/>
  <path id="Tracciato_29" data-name="Tracciato 29" d="M528.753,1793.21l6.706,8.978-.023.02-10.016-9Z" transform="translate(-507.742 -1745.992)" fill="#242d1b"/>
  <path id="Tracciato_30" data-name="Tracciato 30" d="M524.425,1745.92l-3.341,1.93-13.845-1.93,13.845-1.93Z" transform="translate(-496.709 -1716.12)" fill="#242d1b"/>
  <path id="Tracciato_31" data-name="Tracciato 31" d="M531.552,1673.09l3.884,3.385-10.016,8.994Z" transform="translate(-507.742 -1673.09)" fill="#242d1b"/>
  <path id="Tracciato_32" data-name="Tracciato 32" d="M525.419,1793.21l10.016,9-3.884,3.385Z" transform="translate(-507.742 -1745.992)" fill="#242d1b"/>
  <path id="Tracciato_33" data-name="Tracciato 33" d="M528.757,1704.58l-1.883,2.524-1.454-2.524Z" transform="translate(-507.742 -1692.202)" fill="#242d1b"/>
  <path id="Tracciato_34" data-name="Tracciato 34" d="M526.874,1786.81l1.879,2.516h-3.333Z" transform="translate(-507.742 -1742.108)" fill="#242d1b"/>
  <path id="Tracciato_35" data-name="Tracciato 35" d="M522.84,1704.58l1.454,2.524-3.125.377Z" transform="translate(-505.163 -1692.202)" fill="#242d1b"/>
  <path id="Tracciato_36" data-name="Tracciato 36" d="M524.3,1786.227l-1.454,2.516-1.667-2.893Z" transform="translate(-505.169 -1741.525)" fill="#242d1b"/>
  <path id="Tracciato_37" data-name="Tracciato 37" d="M505.695,1704.58l-1.671,2.9-11.1,1.333-.008-.031Z" transform="translate(-488.018 -1692.202)" fill="#242d1b"/>
  <path id="Tracciato_38" data-name="Tracciato 38" d="M504.034,1783.786l1.667,2.893-12.771-4.2,0-.027Z" transform="translate(-488.024 -1739.462)" fill="#242d1b"/>
  <path id="Tracciato_39" data-name="Tracciato 39" d="M504.159,1703.214l-12.775,4.2-.995-5.086Z" transform="translate(-486.482 -1690.836)" fill="#242d1b"/>
  <path id="Tracciato_40" data-name="Tracciato 40" d="M504.159,1786.722l-13.77.888,1-5.091Z" transform="translate(-486.482 -1739.504)" fill="#242d1b"/>
  <path id="Tracciato_41" data-name="Tracciato 41" d="M501.548,1741.57l1.23,2.881h-2.889Z" transform="translate(-492.248 -1714.651)" fill="#242d1b"/>
  <path id="Tracciato_42" data-name="Tracciato 42" d="M502.779,1748.9l-1.23,2.881-1.659-2.881Z" transform="translate(-492.248 -1719.1)" fill="#242d1b"/>
  <path id="Tracciato_43" data-name="Tracciato 43" d="M495.623,1748.9l1.659,2.881-4.391,10.307-.031-.012Z" transform="translate(-487.981 -1719.1)" fill="#242d1b"/>
  <path id="Tracciato_44" data-name="Tracciato 44" d="M492.891,1715.35l4.391,10.307-1.659,2.881-2.763-13.176Z" transform="translate(-487.981 -1698.738)" fill="#242d1b"/>
  <path id="Tracciato_45" data-name="Tracciato 45" d="M485.328,1715.38l2.763,13.177-7.642-11.494Z" transform="translate(-480.449 -1698.756)" fill="#242d1b"/>
  <path id="Tracciato_46" data-name="Tracciato 46" d="M488.091,1748.9l-2.763,13.176h0l-4.874-1.683Z" transform="translate(-480.449 -1719.1)" fill="#242d1b"/>
  <path id="Tracciato_47" data-name="Tracciato 47" d="M484.357,1702.33l.963,5.1-4.87,1.714Z" transform="translate(-480.449 -1690.836)" fill="#242d1b"/>
  <path id="Tracciato_48" data-name="Tracciato 48" d="M485.32,1779.85l-.963,5.1-3.907-6.812Z" transform="translate(-480.449 -1736.846)" fill="#242d1b"/>
</svg>
